<?xml version="1.0" encoding="UTF-8" standalone="no"?>
<!DOCTYPE svg PUBLIC "-//W3C//DTD SVG 1.1//EN"
 "http://www.w3.org/Graphics/SVG/1.1/DTD/svg11.dtd">
<!-- Generated by graphviz version 2.43.0 (0)
 -->
<!-- Title: snakemake_dag Pages: 1 -->
<svg width="2993pt" height="121pt"
 viewBox="0.00 0.00 2993.00 121.00" xmlns="http://www.w3.org/2000/svg" xmlns:xlink="http://www.w3.org/1999/xlink">
<g id="graph0" class="graph" transform="scale(1 1) rotate(0) translate(4 117)">
<title>snakemake_dag</title>
<polygon fill="white" stroke="transparent" points="-4,4 -4,-117 2989,-117 2989,4 -4,4"/>
<!-- 0 -->
<g id="node1" class="node">
<title>0</title>
<path fill="none" stroke="#56d873" stroke-width="2" stroke-dasharray="5,2" d="M1575,-36C1575,-36 1438,-36 1438,-36 1432,-36 1426,-30 1426,-24 1426,-24 1426,-12 1426,-12 1426,-6 1432,0 1438,0 1438,0 1575,0 1575,0 1581,0 1587,-6 1587,-12 1587,-12 1587,-24 1587,-24 1587,-30 1581,-36 1575,-36"/>
<text text-anchor="middle" x="1506.5" y="-15.5" font-family="sans" font-size="10.00">merge_phage_metadata_tsvs</text>
</g>
<!-- 1 -->
<g id="node2" class="node">
<title>1</title>
<path fill="none" stroke="#d8cb56" stroke-width="2" stroke-dasharray="5,2" d="M189,-113C189,-113 12,-113 12,-113 6,-113 0,-107 0,-101 0,-101 0,-84 0,-84 0,-78 6,-72 12,-72 12,-72 189,-72 189,-72 195,-72 201,-78 201,-84 201,-84 201,-101 201,-101 201,-107 195,-113 189,-113"/>
<text text-anchor="middle" x="100.5" y="-101" font-family="sans" font-size="10.00">download_tsv</text>
<text text-anchor="middle" x="100.5" y="-90" font-family="sans" font-size="10.00">feature: phage_metadata</text>
<text text-anchor="middle" x="100.5" y="-79" font-family="sans" font-size="10.00">source: RefSeq_Phage_Metadata_URL</text>
</g>
<!-- 1&#45;&gt;0 -->
<g id="edge1" class="edge">
<title>1&#45;&gt;0</title>
<path fill="none" stroke="grey" stroke-width="2" d="M201.13,-73.1C204.29,-72.7 207.41,-72.33 210.5,-72 660.94,-23.09 1203.9,-18.32 1415.7,-18.52"/>
<polygon fill="grey" stroke="grey" stroke-width="2" points="1415.83,-22.02 1425.84,-18.54 1415.84,-15.02 1415.83,-22.02"/>
</g>
<!-- 2 -->
<g id="node3" class="node">
<title>2</title>
<path fill="none" stroke="#d8cb56" stroke-width="2" stroke-dasharray="5,2" d="M417.5,-113C417.5,-113 231.5,-113 231.5,-113 225.5,-113 219.5,-107 219.5,-101 219.5,-101 219.5,-84 219.5,-84 219.5,-78 225.5,-72 231.5,-72 231.5,-72 417.5,-72 417.5,-72 423.5,-72 429.5,-78 429.5,-84 429.5,-84 429.5,-101 429.5,-101 429.5,-107 423.5,-113 417.5,-113"/>
<text text-anchor="middle" x="324.5" y="-101" font-family="sans" font-size="10.00">download_tsv</text>
<text text-anchor="middle" x="324.5" y="-90" font-family="sans" font-size="10.00">feature: phage_metadata</text>
<text text-anchor="middle" x="324.5" y="-79" font-family="sans" font-size="10.00">source: Genbank_Phage_Metadata_URL</text>
</g>
<!-- 2&#45;&gt;0 -->
<g id="edge2" class="edge">
<title>2&#45;&gt;0</title>
<path fill="none" stroke="grey" stroke-width="2" d="M429.72,-73.03C432.67,-72.66 435.61,-72.32 438.5,-72 798.91,-32.38 1231.02,-22.36 1415.65,-19.84"/>
<polygon fill="grey" stroke="grey" stroke-width="2" points="1415.9,-23.34 1425.85,-19.71 1415.81,-16.34 1415.9,-23.34"/>
</g>
<!-- 3 -->
<g id="node4" class="node">
<title>3</title>
<path fill="none" stroke="#d8cb56" stroke-width="2" stroke-dasharray="5,2" d="M629.5,-113C629.5,-113 459.5,-113 459.5,-113 453.5,-113 447.5,-107 447.5,-101 447.5,-101 447.5,-84 447.5,-84 447.5,-78 453.5,-72 459.5,-72 459.5,-72 629.5,-72 629.5,-72 635.5,-72 641.5,-78 641.5,-84 641.5,-84 641.5,-101 641.5,-101 641.5,-107 635.5,-113 629.5,-113"/>
<text text-anchor="middle" x="544.5" y="-101" font-family="sans" font-size="10.00">download_tsv</text>
<text text-anchor="middle" x="544.5" y="-90" font-family="sans" font-size="10.00">feature: phage_metadata</text>
<text text-anchor="middle" x="544.5" y="-79" font-family="sans" font-size="10.00">source: EMBL_Phage_Metadata_URL</text>
</g>
<!-- 3&#45;&gt;0 -->
<g id="edge3" class="edge">
<title>3&#45;&gt;0</title>
<path fill="none" stroke="grey" stroke-width="2" d="M641.76,-73.14C644.7,-72.73 647.62,-72.35 650.5,-72 928.16,-37.99 1259.31,-25.35 1415.9,-21.04"/>
<polygon fill="grey" stroke="grey" stroke-width="2" points="1416.05,-24.53 1425.95,-20.76 1415.86,-17.54 1416.05,-24.53"/>
</g>
<!-- 4 -->
<g id="node5" class="node">
<title>4</title>
<path fill="none" stroke="#d8cb56" stroke-width="2" stroke-dasharray="5,2" d="M839,-113C839,-113 672,-113 672,-113 666,-113 660,-107 660,-101 660,-101 660,-84 660,-84 660,-78 666,-72 672,-72 672,-72 839,-72 839,-72 845,-72 851,-78 851,-84 851,-84 851,-101 851,-101 851,-107 845,-113 839,-113"/>
<text text-anchor="middle" x="755.5" y="-101" font-family="sans" font-size="10.00">download_tsv</text>
<text text-anchor="middle" x="755.5" y="-90" font-family="sans" font-size="10.00">feature: phage_metadata</text>
<text text-anchor="middle" x="755.5" y="-79" font-family="sans" font-size="10.00">source: DDBJ_Phage_Metadata_URL</text>
</g>
<!-- 4&#45;&gt;0 -->
<g id="edge4" class="edge">
<title>4&#45;&gt;0</title>
<path fill="none" stroke="grey" stroke-width="2" d="M851,-73.34C854.2,-72.86 857.38,-72.42 860.5,-72 1057.54,-45.69 1290.26,-30.45 1415.59,-23.54"/>
<polygon fill="grey" stroke="grey" stroke-width="2" points="1416.11,-27.01 1425.9,-22.97 1415.73,-20.02 1416.11,-27.01"/>
</g>
<!-- 5 -->
<g id="node6" class="node">
<title>5</title>
<path fill="none" stroke="#d8cb56" stroke-width="2" stroke-dasharray="5,2" d="M1073.5,-113C1073.5,-113 881.5,-113 881.5,-113 875.5,-113 869.5,-107 869.5,-101 869.5,-101 869.5,-84 869.5,-84 869.5,-78 875.5,-72 881.5,-72 881.5,-72 1073.5,-72 1073.5,-72 1079.5,-72 1085.5,-78 1085.5,-84 1085.5,-84 1085.5,-101 1085.5,-101 1085.5,-107 1079.5,-113 1073.5,-113"/>
<text text-anchor="middle" x="977.5" y="-101" font-family="sans" font-size="10.00">download_tsv</text>
<text text-anchor="middle" x="977.5" y="-90" font-family="sans" font-size="10.00">feature: phage_metadata</text>
<text text-anchor="middle" x="977.5" y="-79" font-family="sans" font-size="10.00">source: PhagesDB_Phage_Metadata_URL</text>
</g>
<!-- 5&#45;&gt;0 -->
<g id="edge5" class="edge">
<title>5&#45;&gt;0</title>
<path fill="none" stroke="grey" stroke-width="2" d="M1085.53,-73.34C1088.55,-72.89 1091.55,-72.44 1094.5,-72 1204.88,-55.71 1332.32,-39.75 1415.88,-29.67"/>
<polygon fill="grey" stroke="grey" stroke-width="2" points="1416.34,-33.14 1425.85,-28.47 1415.51,-26.19 1416.34,-33.14"/>
</g>
<!-- 6 -->
<g id="node7" class="node">
<title>6</title>
<path fill="none" stroke="#d8cb56" stroke-width="2" stroke-dasharray="5,2" d="M1279.5,-113C1279.5,-113 1115.5,-113 1115.5,-113 1109.5,-113 1103.5,-107 1103.5,-101 1103.5,-101 1103.5,-84 1103.5,-84 1103.5,-78 1109.5,-72 1115.5,-72 1115.5,-72 1279.5,-72 1279.5,-72 1285.5,-72 1291.5,-78 1291.5,-84 1291.5,-84 1291.5,-101 1291.5,-101 1291.5,-107 1285.5,-113 1279.5,-113"/>
<text text-anchor="middle" x="1197.5" y="-101" font-family="sans" font-size="10.00">download_tsv</text>
<text text-anchor="middle" x="1197.5" y="-90" font-family="sans" font-size="10.00">feature: phage_metadata</text>
<text text-anchor="middle" x="1197.5" y="-79" font-family="sans" font-size="10.00">source: GVD_Phage_Metadata_URL</text>
</g>
<!-- 6&#45;&gt;0 -->
<g id="edge6" class="edge">
<title>6&#45;&gt;0</title>
<path fill="none" stroke="grey" stroke-width="2" d="M1280.71,-71.98C1325.17,-61.55 1379.71,-48.75 1424.04,-38.35"/>
<polygon fill="grey" stroke="grey" stroke-width="2" points="1424.98,-41.72 1433.92,-36.03 1423.39,-34.91 1424.98,-41.72"/>
</g>
<!-- 7 -->
<g id="node8" class="node">
<title>7</title>
<path fill="none" stroke="#d8cb56" stroke-width="2" stroke-dasharray="5,2" d="M1485.5,-113C1485.5,-113 1321.5,-113 1321.5,-113 1315.5,-113 1309.5,-107 1309.5,-101 1309.5,-101 1309.5,-84 1309.5,-84 1309.5,-78 1315.5,-72 1321.5,-72 1321.5,-72 1485.5,-72 1485.5,-72 1491.5,-72 1497.5,-78 1497.5,-84 1497.5,-84 1497.5,-101 1497.5,-101 1497.5,-107 1491.5,-113 1485.5,-113"/>
<text text-anchor="middle" x="1403.5" y="-101" font-family="sans" font-size="10.00">download_tsv</text>
<text text-anchor="middle" x="1403.5" y="-90" font-family="sans" font-size="10.00">feature: phage_metadata</text>
<text text-anchor="middle" x="1403.5" y="-79" font-family="sans" font-size="10.00">source: GPD_Phage_Metadata_URL</text>
</g>
<!-- 7&#45;&gt;0 -->
<g id="edge7" class="edge">
<title>7&#45;&gt;0</title>
<path fill="none" stroke="grey" stroke-width="2" d="M1431.37,-71.88C1444.5,-62.64 1460.23,-51.57 1473.91,-41.94"/>
<polygon fill="grey" stroke="grey" stroke-width="2" points="1475.95,-44.78 1482.11,-36.17 1471.92,-39.06 1475.95,-44.78"/>
</g>
<!-- 8 -->
<g id="node9" class="node">
<title>8</title>
<path fill="none" stroke="#d8cb56" stroke-width="2" stroke-dasharray="5,2" d="M1693.5,-113C1693.5,-113 1527.5,-113 1527.5,-113 1521.5,-113 1515.5,-107 1515.5,-101 1515.5,-101 1515.5,-84 1515.5,-84 1515.5,-78 1521.5,-72 1527.5,-72 1527.5,-72 1693.5,-72 1693.5,-72 1699.5,-72 1705.5,-78 1705.5,-84 1705.5,-84 1705.5,-101 1705.5,-101 1705.5,-107 1699.5,-113 1693.5,-113"/>
<text text-anchor="middle" x="1610.5" y="-101" font-family="sans" font-size="10.00">download_tsv</text>
<text text-anchor="middle" x="1610.5" y="-90" font-family="sans" font-size="10.00">feature: phage_metadata</text>
<text text-anchor="middle" x="1610.5" y="-79" font-family="sans" font-size="10.00">source: MGV_Phage_Metadata_URL</text>
</g>
<!-- 8&#45;&gt;0 -->
<g id="edge8" class="edge">
<title>8&#45;&gt;0</title>
<path fill="none" stroke="grey" stroke-width="2" d="M1582.36,-71.88C1569.1,-62.64 1553.21,-51.57 1539.41,-41.94"/>
<polygon fill="grey" stroke="grey" stroke-width="2" points="1541.33,-39.01 1531.12,-36.17 1537.33,-44.76 1541.33,-39.01"/>
</g>
<!-- 9 -->
<g id="node10" class="node">
<title>9</title>
<path fill="none" stroke="#d8cb56" stroke-width="2" stroke-dasharray="5,2" d="M1917.5,-113C1917.5,-113 1735.5,-113 1735.5,-113 1729.5,-113 1723.5,-107 1723.5,-101 1723.5,-101 1723.5,-84 1723.5,-84 1723.5,-78 1729.5,-72 1735.5,-72 1735.5,-72 1917.5,-72 1917.5,-72 1923.5,-72 1929.5,-78 1929.5,-84 1929.5,-84 1929.5,-101 1929.5,-101 1929.5,-107 1923.5,-113 1917.5,-113"/>
<text text-anchor="middle" x="1826.5" y="-101" font-family="sans" font-size="10.00">download_tsv</text>
<text text-anchor="middle" x="1826.5" y="-90" font-family="sans" font-size="10.00">feature: phage_metadata</text>
<text text-anchor="middle" x="1826.5" y="-79" font-family="sans" font-size="10.00">source: TemPhD_Phage_Metadata_URL</text>
</g>
<!-- 9&#45;&gt;0 -->
<g id="edge9" class="edge">
<title>9&#45;&gt;0</title>
<path fill="none" stroke="grey" stroke-width="2" d="M1740.32,-71.98C1694.19,-61.52 1637.57,-48.7 1591.6,-38.28"/>
<polygon fill="grey" stroke="grey" stroke-width="2" points="1592.19,-34.83 1581.66,-36.03 1590.64,-41.65 1592.19,-34.83"/>
</g>
<!-- 10 -->
<g id="node11" class="node">
<title>10</title>
<path fill="none" stroke="#d8cb56" stroke-width="2" stroke-dasharray="5,2" d="M2131,-113C2131,-113 1960,-113 1960,-113 1954,-113 1948,-107 1948,-101 1948,-101 1948,-84 1948,-84 1948,-78 1954,-72 1960,-72 1960,-72 2131,-72 2131,-72 2137,-72 2143,-78 2143,-84 2143,-84 2143,-101 2143,-101 2143,-107 2137,-113 2131,-113"/>
<text text-anchor="middle" x="2045.5" y="-101" font-family="sans" font-size="10.00">download_tsv</text>
<text text-anchor="middle" x="2045.5" y="-90" font-family="sans" font-size="10.00">feature: phage_metadata</text>
<text text-anchor="middle" x="2045.5" y="-79" font-family="sans" font-size="10.00">source: CHVD_Phage_Metadata_URL</text>
</g>
<!-- 10&#45;&gt;0 -->
<g id="edge10" class="edge">
<title>10&#45;&gt;0</title>
<path fill="none" stroke="grey" stroke-width="2" d="M1947.86,-73.46C1944.71,-72.96 1941.58,-72.47 1938.5,-72 1821.02,-54.1 1684.84,-38.19 1597.28,-28.58"/>
<polygon fill="grey" stroke="grey" stroke-width="2" points="1597.43,-25.08 1587.11,-27.47 1596.67,-32.04 1597.43,-25.08"/>
</g>
<!-- 11 -->
<g id="node12" class="node">
<title>11</title>
<path fill="none" stroke="#d8cb56" stroke-width="2" stroke-dasharray="5,2" d="M2340,-113C2340,-113 2173,-113 2173,-113 2167,-113 2161,-107 2161,-101 2161,-101 2161,-84 2161,-84 2161,-78 2167,-72 2173,-72 2173,-72 2340,-72 2340,-72 2346,-72 2352,-78 2352,-84 2352,-84 2352,-101 2352,-101 2352,-107 2346,-113 2340,-113"/>
<text text-anchor="middle" x="2256.5" y="-101" font-family="sans" font-size="10.00">download_tsv</text>
<text text-anchor="middle" x="2256.5" y="-90" font-family="sans" font-size="10.00">feature: phage_metadata</text>
<text text-anchor="middle" x="2256.5" y="-79" font-family="sans" font-size="10.00">source: IGVD_Phage_Metadata_URL</text>
</g>
<!-- 11&#45;&gt;0 -->
<g id="edge11" class="edge">
<title>11&#45;&gt;0</title>
<path fill="none" stroke="grey" stroke-width="2" d="M2160.79,-73.17C2158,-72.76 2155.23,-72.37 2152.5,-72 1955.48,-45.52 1722.75,-30.35 1597.42,-23.49"/>
<polygon fill="grey" stroke="grey" stroke-width="2" points="1597.28,-19.97 1587.1,-22.93 1596.9,-26.96 1597.28,-19.97"/>
</g>
<!-- 12 -->
<g id="node13" class="node">
<title>12</title>
<path fill="none" stroke="#d8cb56" stroke-width="2" stroke-dasharray="5,2" d="M2558.5,-113C2558.5,-113 2382.5,-113 2382.5,-113 2376.5,-113 2370.5,-107 2370.5,-101 2370.5,-101 2370.5,-84 2370.5,-84 2370.5,-78 2376.5,-72 2382.5,-72 2382.5,-72 2558.5,-72 2558.5,-72 2564.5,-72 2570.5,-78 2570.5,-84 2570.5,-84 2570.5,-101 2570.5,-101 2570.5,-107 2564.5,-113 2558.5,-113"/>
<text text-anchor="middle" x="2470.5" y="-101" font-family="sans" font-size="10.00">download_tsv</text>
<text text-anchor="middle" x="2470.5" y="-90" font-family="sans" font-size="10.00">feature: phage_metadata</text>
<text text-anchor="middle" x="2470.5" y="-79" font-family="sans" font-size="10.00">source: IMGVR_Phage_Metadata_URL</text>
</g>
<!-- 12&#45;&gt;0 -->
<g id="edge12" class="edge">
<title>12&#45;&gt;0</title>
<path fill="none" stroke="grey" stroke-width="2" d="M2370.48,-73.15C2367.46,-72.74 2364.46,-72.36 2361.5,-72 2084.26,-38.72 1753.79,-25.75 1597.29,-21.2"/>
<polygon fill="grey" stroke="grey" stroke-width="2" points="1597.33,-17.7 1587.23,-20.91 1597.13,-24.69 1597.33,-17.7"/>
</g>
<!-- 13 -->
<g id="node14" class="node">
<title>13</title>
<path fill="none" stroke="#d8cb56" stroke-width="2" stroke-dasharray="5,2" d="M2770.5,-113C2770.5,-113 2600.5,-113 2600.5,-113 2594.5,-113 2588.5,-107 2588.5,-101 2588.5,-101 2588.5,-84 2588.5,-84 2588.5,-78 2594.5,-72 2600.5,-72 2600.5,-72 2770.5,-72 2770.5,-72 2776.5,-72 2782.5,-78 2782.5,-84 2782.5,-84 2782.5,-101 2782.5,-101 2782.5,-107 2776.5,-113 2770.5,-113"/>
<text text-anchor="middle" x="2685.5" y="-101" font-family="sans" font-size="10.00">download_tsv</text>
<text text-anchor="middle" x="2685.5" y="-90" font-family="sans" font-size="10.00">feature: phage_metadata</text>
<text text-anchor="middle" x="2685.5" y="-79" font-family="sans" font-size="10.00">source: GOV2_Phage_Metadata_URL</text>
</g>
<!-- 13&#45;&gt;0 -->
<g id="edge13" class="edge">
<title>13&#45;&gt;0</title>
<path fill="none" stroke="grey" stroke-width="2" d="M2588.25,-73.09C2585.3,-72.7 2582.38,-72.33 2579.5,-72 2217.43,-29.94 1782.85,-21.21 1597.47,-19.43"/>
<polygon fill="grey" stroke="grey" stroke-width="2" points="1597.26,-15.93 1587.23,-19.34 1597.19,-22.93 1597.26,-15.93"/>
</g>
<!-- 14 -->
<g id="node15" class="node">
<title>14</title>
<path fill="none" stroke="#d8cb56" stroke-width="2" stroke-dasharray="5,2" d="M2973,-113C2973,-113 2812,-113 2812,-113 2806,-113 2800,-107 2800,-101 2800,-101 2800,-84 2800,-84 2800,-78 2806,-72 2812,-72 2812,-72 2973,-72 2973,-72 2979,-72 2985,-78 2985,-84 2985,-84 2985,-101 2985,-101 2985,-107 2979,-113 2973,-113"/>
<text text-anchor="middle" x="2892.5" y="-101" font-family="sans" font-size="10.00">download_tsv</text>
<text text-anchor="middle" x="2892.5" y="-90" font-family="sans" font-size="10.00">feature: phage_metadata</text>
<text text-anchor="middle" x="2892.5" y="-79" font-family="sans" font-size="10.00">source: STV_Phage_Metadata_URL</text>
</g>
<!-- 14&#45;&gt;0 -->
<g id="edge14" class="edge">
<title>14&#45;&gt;0</title>
<path fill="none" stroke="grey" stroke-width="2" d="M2799.85,-73.05C2797.04,-72.67 2794.25,-72.32 2791.5,-72 2559.9,-45.02 1850.91,-26.79 1597.63,-20.99"/>
<polygon fill="grey" stroke="grey" stroke-width="2" points="1597.44,-17.48 1587.36,-20.75 1597.28,-24.48 1597.44,-17.48"/>
</g>
</g>
</svg>
