<?xml version="1.0" encoding="UTF-8" standalone="no"?>
<!DOCTYPE svg PUBLIC "-//W3C//DTD SVG 1.1//EN"
 "http://www.w3.org/Graphics/SVG/1.1/DTD/svg11.dtd">
<!-- Generated by graphviz version 2.43.0 (0)
 -->
<!-- Title: snakemake_dag Pages: 1 -->
<svg width="2511pt" height="404pt"
 viewBox="0.00 0.00 2511.00 404.00" xmlns="http://www.w3.org/2000/svg" xmlns:xlink="http://www.w3.org/1999/xlink">
<g id="graph0" class="graph" transform="scale(1 1) rotate(0) translate(4 400)">
<title>snakemake_dag</title>
<polygon fill="white" stroke="transparent" points="-4,4 -4,-400 2507,-400 2507,4 -4,4"/>
<!-- 0 -->
<g id="node1" class="node">
<title>0</title>
<path fill="none" stroke="#56d873" stroke-width="2" d="M1772.5,-36C1772.5,-36 1742.5,-36 1742.5,-36 1736.5,-36 1730.5,-30 1730.5,-24 1730.5,-24 1730.5,-12 1730.5,-12 1730.5,-6 1736.5,0 1742.5,0 1742.5,0 1772.5,0 1772.5,0 1778.5,0 1784.5,-6 1784.5,-12 1784.5,-12 1784.5,-24 1784.5,-24 1784.5,-30 1778.5,-36 1772.5,-36"/>
<text text-anchor="middle" x="1757.5" y="-15.5" font-family="sans" font-size="10.00">all</text>
</g>
<!-- 1 -->
<g id="node2" class="node">
<title>1</title>
<path fill="none" stroke="#56c1d8" stroke-width="2" d="M1144,-252C1144,-252 1073,-252 1073,-252 1067,-252 1061,-246 1061,-240 1061,-240 1061,-228 1061,-228 1061,-222 1067,-216 1073,-216 1073,-216 1144,-216 1144,-216 1150,-216 1156,-222 1156,-228 1156,-228 1156,-240 1156,-240 1156,-246 1150,-252 1144,-252"/>
<text text-anchor="middle" x="1108.5" y="-231.5" font-family="sans" font-size="10.00">generate_report</text>
</g>
<!-- 1&#45;&gt;0 -->
<g id="edge3" class="edge">
<title>1&#45;&gt;0</title>
<path fill="none" stroke="grey" stroke-width="2" d="M1155.2,-215.98C1238.83,-185.71 1419.89,-121.06 1574.5,-72 1624.79,-56.04 1683.45,-39.4 1720.53,-29.11"/>
<polygon fill="grey" stroke="grey" stroke-width="2" points="1721.69,-32.42 1730.39,-26.39 1719.82,-25.68 1721.69,-32.42"/>
</g>
<!-- 2 -->
<g id="node3" class="node">
<title>2</title>
<path fill="none" stroke="#ced856" stroke-width="2" d="M149,-324C149,-324 12,-324 12,-324 6,-324 0,-318 0,-312 0,-312 0,-300 0,-300 0,-294 6,-288 12,-288 12,-288 149,-288 149,-288 155,-288 161,-294 161,-300 161,-300 161,-312 161,-312 161,-318 155,-324 149,-324"/>
<text text-anchor="middle" x="80.5" y="-303.5" font-family="sans" font-size="10.00">merge_phage_metadata_tsvs</text>
</g>
<!-- 2&#45;&gt;1 -->
<g id="edge15" class="edge">
<title>2&#45;&gt;1</title>
<path fill="none" stroke="grey" stroke-width="2" d="M161.38,-289.21C164.45,-288.77 167.5,-288.37 170.5,-288 502.13,-247.48 903.58,-237.87 1050.81,-235.65"/>
<polygon fill="grey" stroke="grey" stroke-width="2" points="1051.02,-239.15 1060.97,-235.5 1050.92,-232.15 1051.02,-239.15"/>
</g>
<!-- 19 -->
<g id="node20" class="node">
<title>19</title>
<path fill="none" stroke="#d87d56" stroke-width="2" d="M1284.5,-252C1284.5,-252 1220.5,-252 1220.5,-252 1214.5,-252 1208.5,-246 1208.5,-240 1208.5,-240 1208.5,-228 1208.5,-228 1208.5,-222 1214.5,-216 1220.5,-216 1220.5,-216 1284.5,-216 1284.5,-216 1290.5,-216 1296.5,-222 1296.5,-228 1296.5,-228 1296.5,-240 1296.5,-240 1296.5,-246 1290.5,-252 1284.5,-252"/>
<text text-anchor="middle" x="1252.5" y="-231.5" font-family="sans" font-size="10.00">create_duckdb</text>
</g>
<!-- 2&#45;&gt;19 -->
<g id="edge38" class="edge">
<title>2&#45;&gt;19</title>
<path fill="none" stroke="grey" stroke-width="2" d="M161.37,-289.13C164.44,-288.72 167.5,-288.34 170.5,-288 609.83,-238.84 725.28,-302.07 1164.5,-252 1175.51,-250.75 1187.2,-248.87 1198.34,-246.82"/>
<polygon fill="grey" stroke="grey" stroke-width="2" points="1199.22,-250.22 1208.39,-244.91 1197.91,-243.34 1199.22,-250.22"/>
</g>
<!-- 3 -->
<g id="node4" class="node">
<title>3</title>
<path fill="none" stroke="#56a2d8" stroke-width="2" d="M1070.5,-396C1070.5,-396 1010.5,-396 1010.5,-396 1004.5,-396 998.5,-390 998.5,-384 998.5,-384 998.5,-372 998.5,-372 998.5,-366 1004.5,-360 1010.5,-360 1010.5,-360 1070.5,-360 1070.5,-360 1076.5,-360 1082.5,-366 1082.5,-372 1082.5,-372 1082.5,-384 1082.5,-384 1082.5,-390 1076.5,-396 1070.5,-396"/>
<text text-anchor="middle" x="1040.5" y="-375.5" font-family="sans" font-size="10.00">download_tsv</text>
</g>
<!-- 3&#45;&gt;2 -->
<g id="edge17" class="edge">
<title>3&#45;&gt;2</title>
<path fill="none" stroke="grey" stroke-width="2" d="M998.23,-376.31C873.29,-373.86 494.84,-363.58 171.41,-324.01"/>
<polygon fill="grey" stroke="grey" stroke-width="2" points="171.73,-320.53 161.38,-322.77 170.87,-327.47 171.73,-320.53"/>
</g>
<!-- 4 -->
<g id="node5" class="node">
<title>4</title>
<path fill="none" stroke="#d89c56" stroke-width="2" d="M393.5,-324C393.5,-324 191.5,-324 191.5,-324 185.5,-324 179.5,-318 179.5,-312 179.5,-312 179.5,-300 179.5,-300 179.5,-294 185.5,-288 191.5,-288 191.5,-288 393.5,-288 393.5,-288 399.5,-288 405.5,-294 405.5,-300 405.5,-300 405.5,-312 405.5,-312 405.5,-318 399.5,-324 393.5,-324"/>
<text text-anchor="middle" x="292.5" y="-303.5" font-family="sans" font-size="10.00">merge_annotated_proteins_metadata_tsvs</text>
</g>
<!-- 3&#45;&gt;4 -->
<g id="edge18" class="edge">
<title>3&#45;&gt;4</title>
<path fill="none" stroke="grey" stroke-width="2" d="M998.29,-374.22C898.76,-367.48 641.41,-349.09 415.83,-324.12"/>
<polygon fill="grey" stroke="grey" stroke-width="2" points="416.12,-320.63 405.79,-323 415.35,-327.58 416.12,-320.63"/>
</g>
<!-- 5 -->
<g id="node6" class="node">
<title>5</title>
<path fill="none" stroke="#80d856" stroke-width="2" d="M661.5,-324C661.5,-324 435.5,-324 435.5,-324 429.5,-324 423.5,-318 423.5,-312 423.5,-312 423.5,-300 423.5,-300 423.5,-294 429.5,-288 435.5,-288 435.5,-288 661.5,-288 661.5,-288 667.5,-288 673.5,-294 673.5,-300 673.5,-300 673.5,-312 673.5,-312 673.5,-318 667.5,-324 661.5,-324"/>
<text text-anchor="middle" x="548.5" y="-303.5" font-family="sans" font-size="10.00">merge_transcription_terminator_metadata_tsvs</text>
</g>
<!-- 3&#45;&gt;5 -->
<g id="edge19" class="edge">
<title>3&#45;&gt;5</title>
<path fill="none" stroke="grey" stroke-width="2" d="M998.13,-370.97C927.84,-360.97 784.4,-340.56 678.35,-325.47"/>
<polygon fill="grey" stroke="grey" stroke-width="2" points="678.6,-321.97 668.2,-324.03 677.61,-328.9 678.6,-321.97"/>
</g>
<!-- 6 -->
<g id="node7" class="node">
<title>6</title>
<path fill="none" stroke="#70d856" stroke-width="2" d="M901,-324C901,-324 704,-324 704,-324 698,-324 692,-318 692,-312 692,-312 692,-300 692,-300 692,-294 698,-288 704,-288 704,-288 901,-288 901,-288 907,-288 913,-294 913,-300 913,-300 913,-312 913,-312 913,-318 907,-324 901,-324"/>
<text text-anchor="middle" x="802.5" y="-303.5" font-family="sans" font-size="10.00">merge_phage_trna_tmrna_metadata_tsvs</text>
</g>
<!-- 3&#45;&gt;6 -->
<g id="edge20" class="edge">
<title>3&#45;&gt;6</title>
<path fill="none" stroke="grey" stroke-width="2" d="M998.5,-364.65C963.04,-354.22 911.6,-339.09 870.32,-326.95"/>
<polygon fill="grey" stroke="grey" stroke-width="2" points="871.18,-323.55 860.6,-324.09 869.2,-330.27 871.18,-323.55"/>
</g>
<!-- 7 -->
<g id="node8" class="node">
<title>7</title>
<path fill="none" stroke="#56d0d8" stroke-width="2" d="M1137.5,-324C1137.5,-324 943.5,-324 943.5,-324 937.5,-324 931.5,-318 931.5,-312 931.5,-312 931.5,-300 931.5,-300 931.5,-294 937.5,-288 943.5,-288 943.5,-288 1137.5,-288 1137.5,-288 1143.5,-288 1149.5,-294 1149.5,-300 1149.5,-300 1149.5,-312 1149.5,-312 1149.5,-318 1143.5,-324 1137.5,-324"/>
<text text-anchor="middle" x="1040.5" y="-303.5" font-family="sans" font-size="10.00">merge_phage_anti_crispr_metadata_tsvs</text>
</g>
<!-- 3&#45;&gt;7 -->
<g id="edge21" class="edge">
<title>3&#45;&gt;7</title>
<path fill="none" stroke="grey" stroke-width="2" d="M1040.5,-359.7C1040.5,-351.98 1040.5,-342.71 1040.5,-334.11"/>
<polygon fill="grey" stroke="grey" stroke-width="2" points="1044,-334.1 1040.5,-324.1 1037,-334.1 1044,-334.1"/>
</g>
<!-- 8 -->
<g id="node9" class="node">
<title>8</title>
<path fill="none" stroke="#d8c356" stroke-width="2" d="M1393.5,-324C1393.5,-324 1179.5,-324 1179.5,-324 1173.5,-324 1167.5,-318 1167.5,-312 1167.5,-312 1167.5,-300 1167.5,-300 1167.5,-294 1173.5,-288 1179.5,-288 1179.5,-288 1393.5,-288 1393.5,-288 1399.5,-288 1405.5,-294 1405.5,-300 1405.5,-300 1405.5,-312 1405.5,-312 1405.5,-318 1399.5,-324 1393.5,-324"/>
<text text-anchor="middle" x="1286.5" y="-303.5" font-family="sans" font-size="10.00">merge_phage_virulent_factor_metadata_tsvs</text>
</g>
<!-- 3&#45;&gt;8 -->
<g id="edge22" class="edge">
<title>3&#45;&gt;8</title>
<path fill="none" stroke="grey" stroke-width="2" d="M1082.51,-365.05C1119.38,-354.55 1173.73,-339.09 1217.06,-326.76"/>
<polygon fill="grey" stroke="grey" stroke-width="2" points="1218.03,-330.12 1226.69,-324.02 1216.11,-323.39 1218.03,-330.12"/>
</g>
<!-- 9 -->
<g id="node10" class="node">
<title>9</title>
<path fill="none" stroke="#56d892" stroke-width="2" d="M1695.5,-324C1695.5,-324 1435.5,-324 1435.5,-324 1429.5,-324 1423.5,-318 1423.5,-312 1423.5,-312 1423.5,-300 1423.5,-300 1423.5,-294 1429.5,-288 1435.5,-288 1435.5,-288 1695.5,-288 1695.5,-288 1701.5,-288 1707.5,-294 1707.5,-300 1707.5,-300 1707.5,-312 1707.5,-312 1707.5,-318 1701.5,-324 1695.5,-324"/>
<text text-anchor="middle" x="1565.5" y="-303.5" font-family="sans" font-size="10.00">merge_phage_transmembrane_protein_metadata_tsvs</text>
</g>
<!-- 3&#45;&gt;9 -->
<g id="edge23" class="edge">
<title>3&#45;&gt;9</title>
<path fill="none" stroke="grey" stroke-width="2" d="M1082.58,-371.39C1156.58,-361.52 1313.07,-340.66 1427.93,-325.34"/>
<polygon fill="grey" stroke="grey" stroke-width="2" points="1428.42,-328.81 1437.87,-324.02 1427.49,-321.87 1428.42,-328.81"/>
</g>
<!-- 10 -->
<g id="node11" class="node">
<title>10</title>
<path fill="none" stroke="#d85656" stroke-width="2" d="M1995,-324C1995,-324 1738,-324 1738,-324 1732,-324 1726,-318 1726,-312 1726,-312 1726,-300 1726,-300 1726,-294 1732,-288 1738,-288 1738,-288 1995,-288 1995,-288 2001,-288 2007,-294 2007,-300 2007,-300 2007,-312 2007,-312 2007,-318 2001,-324 1995,-324"/>
<text text-anchor="middle" x="1866.5" y="-303.5" font-family="sans" font-size="10.00">merge_antimicrobial_resistance_gene_metadata_tsvs</text>
</g>
<!-- 3&#45;&gt;10 -->
<g id="edge24" class="edge">
<title>3&#45;&gt;10</title>
<path fill="none" stroke="grey" stroke-width="2" d="M1082.86,-374.19C1187.96,-367.11 1469.32,-347.49 1715.76,-324.05"/>
<polygon fill="grey" stroke="grey" stroke-width="2" points="1716.37,-327.51 1725.99,-323.07 1715.7,-320.54 1716.37,-327.51"/>
</g>
<!-- 11 -->
<g id="node12" class="node">
<title>11</title>
<path fill="none" stroke="#56d85b" stroke-width="2" d="M2202,-324C2202,-324 2037,-324 2037,-324 2031,-324 2025,-318 2025,-312 2025,-312 2025,-300 2025,-300 2025,-294 2031,-288 2037,-288 2037,-288 2202,-288 2202,-288 2208,-288 2214,-294 2214,-300 2214,-300 2214,-312 2214,-312 2214,-318 2208,-324 2202,-324"/>
<text text-anchor="middle" x="2119.5" y="-303.5" font-family="sans" font-size="10.00">merge_crispr_array_metadata_tsvs</text>
</g>
<!-- 3&#45;&gt;11 -->
<g id="edge25" class="edge">
<title>3&#45;&gt;11</title>
<path fill="none" stroke="grey" stroke-width="2" d="M1082.92,-376.32C1217.69,-373.83 1648.24,-363.22 2014.89,-323.99"/>
<polygon fill="grey" stroke="grey" stroke-width="2" points="2015.33,-327.46 2024.9,-322.91 2014.58,-320.5 2015.33,-327.46"/>
</g>
<!-- 4&#45;&gt;1 -->
<g id="edge9" class="edge">
<title>4&#45;&gt;1</title>
<path fill="none" stroke="grey" stroke-width="2" d="M405.79,-288.97C408.72,-288.63 411.63,-288.31 414.5,-288 650.02,-262.62 931.79,-245.03 1050.87,-238.18"/>
<polygon fill="grey" stroke="grey" stroke-width="2" points="1051.08,-241.68 1060.87,-237.61 1050.68,-234.69 1051.08,-241.68"/>
</g>
<!-- 4&#45;&gt;19 -->
<g id="edge32" class="edge">
<title>4&#45;&gt;19</title>
<path fill="none" stroke="grey" stroke-width="2" d="M405.78,-288.86C408.71,-288.56 411.63,-288.27 414.5,-288 746.77,-256.94 833.16,-291.75 1164.5,-252 1175.5,-250.68 1187.19,-248.78 1198.33,-246.72"/>
<polygon fill="grey" stroke="grey" stroke-width="2" points="1199.21,-250.12 1208.38,-244.8 1197.9,-243.24 1199.21,-250.12"/>
</g>
<!-- 5&#45;&gt;1 -->
<g id="edge10" class="edge">
<title>5&#45;&gt;1</title>
<path fill="none" stroke="grey" stroke-width="2" d="M673.68,-289.11C676.65,-288.74 679.59,-288.37 682.5,-288 814.22,-271.45 968.89,-252.27 1050.8,-242.13"/>
<polygon fill="grey" stroke="grey" stroke-width="2" points="1051.4,-245.59 1060.9,-240.88 1050.54,-238.64 1051.4,-245.59"/>
</g>
<!-- 5&#45;&gt;19 -->
<g id="edge33" class="edge">
<title>5&#45;&gt;19</title>
<path fill="none" stroke="grey" stroke-width="2" d="M673.66,-288.91C676.63,-288.6 679.58,-288.29 682.5,-288 896.24,-266.47 951.57,-280.42 1164.5,-252 1175.48,-250.53 1187.16,-248.57 1198.3,-246.49"/>
<polygon fill="grey" stroke="grey" stroke-width="2" points="1199.19,-249.89 1208.35,-244.57 1197.87,-243.01 1199.19,-249.89"/>
</g>
<!-- 6&#45;&gt;1 -->
<g id="edge11" class="edge">
<title>6&#45;&gt;1</title>
<path fill="none" stroke="grey" stroke-width="2" d="M876.96,-287.97C930.59,-275.7 1001.87,-259.39 1051.11,-248.13"/>
<polygon fill="grey" stroke="grey" stroke-width="2" points="1051.99,-251.52 1060.96,-245.88 1050.43,-244.69 1051.99,-251.52"/>
</g>
<!-- 6&#45;&gt;19 -->
<g id="edge35" class="edge">
<title>6&#45;&gt;19</title>
<path fill="none" stroke="grey" stroke-width="2" d="M913.41,-289.02C1010.58,-274.98 1140.04,-256.15 1164.5,-252 1175.42,-250.15 1187.08,-248.01 1198.21,-245.89"/>
<polygon fill="grey" stroke="grey" stroke-width="2" points="1199.1,-249.28 1208.25,-243.95 1197.77,-242.41 1199.1,-249.28"/>
</g>
<!-- 7&#45;&gt;1 -->
<g id="edge16" class="edge">
<title>7&#45;&gt;1</title>
<path fill="none" stroke="grey" stroke-width="2" d="M1057.31,-287.7C1065.63,-279.14 1075.81,-268.66 1084.89,-259.3"/>
<polygon fill="grey" stroke="grey" stroke-width="2" points="1087.43,-261.72 1091.88,-252.1 1082.41,-256.84 1087.43,-261.72"/>
</g>
<!-- 7&#45;&gt;19 -->
<g id="edge39" class="edge">
<title>7&#45;&gt;19</title>
<path fill="none" stroke="grey" stroke-width="2" d="M1092.09,-287.97C1124.3,-277.33 1165.71,-263.66 1198.39,-252.87"/>
<polygon fill="grey" stroke="grey" stroke-width="2" points="1199.83,-256.08 1208.23,-249.62 1197.63,-249.43 1199.83,-256.08"/>
</g>
<!-- 8&#45;&gt;1 -->
<g id="edge12" class="edge">
<title>8&#45;&gt;1</title>
<path fill="none" stroke="grey" stroke-width="2" d="M1242.96,-287.88C1218.3,-278.18 1187.28,-265.98 1161.25,-255.74"/>
<polygon fill="grey" stroke="grey" stroke-width="2" points="1162.49,-252.47 1151.9,-252.07 1159.93,-258.99 1162.49,-252.47"/>
</g>
<!-- 8&#45;&gt;19 -->
<g id="edge34" class="edge">
<title>8&#45;&gt;19</title>
<path fill="none" stroke="grey" stroke-width="2" d="M1278.1,-287.7C1274.23,-279.73 1269.55,-270.1 1265.26,-261.26"/>
<polygon fill="grey" stroke="grey" stroke-width="2" points="1268.33,-259.57 1260.81,-252.1 1262.03,-262.63 1268.33,-259.57"/>
</g>
<!-- 9&#45;&gt;1 -->
<g id="edge13" class="edge">
<title>9&#45;&gt;1</title>
<path fill="none" stroke="grey" stroke-width="2" d="M1439.11,-287.99C1368.51,-278.17 1278.99,-265.18 1199.5,-252 1188.7,-250.21 1177.2,-248.17 1166.14,-246.14"/>
<polygon fill="grey" stroke="grey" stroke-width="2" points="1166.61,-242.66 1156.14,-244.28 1165.33,-249.55 1166.61,-242.66"/>
</g>
<!-- 9&#45;&gt;19 -->
<g id="edge36" class="edge">
<title>9&#45;&gt;19</title>
<path fill="none" stroke="grey" stroke-width="2" d="M1489.33,-287.97C1432.79,-275.32 1357.05,-258.38 1306.61,-247.1"/>
<polygon fill="grey" stroke="grey" stroke-width="2" points="1307.08,-243.62 1296.56,-244.85 1305.55,-250.45 1307.08,-243.62"/>
</g>
<!-- 10&#45;&gt;1 -->
<g id="edge8" class="edge">
<title>10&#45;&gt;1</title>
<path fill="none" stroke="grey" stroke-width="2" d="M1725.99,-288.89C1722.8,-288.58 1719.63,-288.29 1716.5,-288 1487.12,-267.03 1427.98,-281.2 1199.5,-252 1188.64,-250.61 1177.11,-248.76 1166.04,-246.79"/>
<polygon fill="grey" stroke="grey" stroke-width="2" points="1166.5,-243.31 1156.04,-244.95 1165.24,-250.2 1166.5,-243.31"/>
</g>
<!-- 10&#45;&gt;19 -->
<g id="edge31" class="edge">
<title>10&#45;&gt;19</title>
<path fill="none" stroke="grey" stroke-width="2" d="M1725.64,-288.94C1592.55,-273.77 1399.84,-251.8 1306.8,-241.19"/>
<polygon fill="grey" stroke="grey" stroke-width="2" points="1307.1,-237.7 1296.77,-240.05 1306.31,-244.66 1307.1,-237.7"/>
</g>
<!-- 11&#45;&gt;1 -->
<g id="edge14" class="edge">
<title>11&#45;&gt;1</title>
<path fill="none" stroke="grey" stroke-width="2" d="M2024.9,-289.05C2021.74,-288.67 2018.59,-288.32 2015.5,-288 1654.41,-250.65 1560.15,-293.43 1199.5,-252 1188.62,-250.75 1177.08,-248.96 1166.01,-247.01"/>
<polygon fill="grey" stroke="grey" stroke-width="2" points="1166.48,-243.54 1156.01,-245.18 1165.22,-250.42 1166.48,-243.54"/>
</g>
<!-- 11&#45;&gt;19 -->
<g id="edge37" class="edge">
<title>11&#45;&gt;19</title>
<path fill="none" stroke="grey" stroke-width="2" d="M2024.89,-289.15C2021.73,-288.75 2018.59,-288.36 2015.5,-288 1750.9,-257.25 1432.45,-242.15 1307.04,-237.05"/>
<polygon fill="grey" stroke="grey" stroke-width="2" points="1307.06,-233.55 1296.93,-236.65 1306.78,-240.54 1307.06,-233.55"/>
</g>
<!-- 12 -->
<g id="node13" class="node">
<title>12</title>
<path fill="none" stroke="#567bd8" stroke-width="2" d="M1930,-252C1930,-252 1781,-252 1781,-252 1775,-252 1769,-246 1769,-240 1769,-240 1769,-228 1769,-228 1769,-222 1775,-216 1781,-216 1781,-216 1930,-216 1930,-216 1936,-216 1942,-222 1942,-228 1942,-228 1942,-240 1942,-240 1942,-246 1936,-252 1930,-252"/>
<text text-anchor="middle" x="1855.5" y="-231.5" font-family="sans" font-size="10.00">merge_protein_fasta_by_source</text>
</g>
<!-- 12&#45;&gt;0 -->
<g id="edge7" class="edge">
<title>12&#45;&gt;0</title>
<path fill="none" stroke="grey" stroke-width="2" d="M1824.48,-215.86C1811.08,-206.89 1796.45,-194.71 1787.5,-180 1762.17,-138.35 1757.31,-80.28 1756.87,-46.46"/>
<polygon fill="grey" stroke="grey" stroke-width="2" points="1760.37,-46.38 1756.86,-36.38 1753.37,-46.39 1760.37,-46.38"/>
</g>
<!-- 24 -->
<g id="node25" class="node">
<title>24</title>
<path fill="none" stroke="#568ad8" stroke-width="2" d="M1902.5,-180C1902.5,-180 1808.5,-180 1808.5,-180 1802.5,-180 1796.5,-174 1796.5,-168 1796.5,-168 1796.5,-156 1796.5,-156 1796.5,-150 1802.5,-144 1808.5,-144 1808.5,-144 1902.5,-144 1902.5,-144 1908.5,-144 1914.5,-150 1914.5,-156 1914.5,-156 1914.5,-168 1914.5,-168 1914.5,-174 1908.5,-180 1902.5,-180"/>
<text text-anchor="middle" x="1855.5" y="-159.5" font-family="sans" font-size="10.00">merge_protein_fasta</text>
</g>
<!-- 12&#45;&gt;24 -->
<g id="edge44" class="edge">
<title>12&#45;&gt;24</title>
<path fill="none" stroke="grey" stroke-width="2" d="M1855.5,-215.7C1855.5,-207.98 1855.5,-198.71 1855.5,-190.11"/>
<polygon fill="grey" stroke="grey" stroke-width="2" points="1859,-190.1 1855.5,-180.1 1852,-190.1 1859,-190.1"/>
</g>
<!-- 13 -->
<g id="node14" class="node">
<title>13</title>
<path fill="none" stroke="#56d882" stroke-width="2" d="M2341,-324C2341,-324 2244,-324 2244,-324 2238,-324 2232,-318 2232,-312 2232,-312 2232,-300 2232,-300 2232,-294 2238,-288 2244,-288 2244,-288 2341,-288 2341,-288 2347,-288 2353,-294 2353,-300 2353,-300 2353,-312 2353,-312 2353,-318 2347,-324 2341,-324"/>
<text text-anchor="middle" x="2292.5" y="-303.5" font-family="sans" font-size="10.00">extract_protein_fasta</text>
</g>
<!-- 13&#45;&gt;12 -->
<g id="edge26" class="edge">
<title>13&#45;&gt;12</title>
<path fill="none" stroke="grey" stroke-width="2" d="M2231.88,-289.87C2228.71,-289.21 2225.57,-288.58 2222.5,-288 2105.27,-265.89 2074.45,-269.9 1956.5,-252 1955.19,-251.8 1953.87,-251.6 1952.54,-251.4"/>
<polygon fill="grey" stroke="grey" stroke-width="2" points="1952.67,-247.87 1942.24,-249.79 1951.58,-254.79 1952.67,-247.87"/>
</g>
<!-- 14 -->
<g id="node15" class="node">
<title>14</title>
<path fill="none" stroke="#d86656" stroke-width="2" d="M2343.5,-396C2343.5,-396 2233.5,-396 2233.5,-396 2227.5,-396 2221.5,-390 2221.5,-384 2221.5,-384 2221.5,-372 2221.5,-372 2221.5,-366 2227.5,-360 2233.5,-360 2233.5,-360 2343.5,-360 2343.5,-360 2349.5,-360 2355.5,-366 2355.5,-372 2355.5,-372 2355.5,-384 2355.5,-384 2355.5,-390 2349.5,-396 2343.5,-396"/>
<text text-anchor="middle" x="2288.5" y="-375.5" font-family="sans" font-size="10.00">download_protein_fasta</text>
</g>
<!-- 14&#45;&gt;13 -->
<g id="edge27" class="edge">
<title>14&#45;&gt;13</title>
<path fill="none" stroke="grey" stroke-width="2" d="M2289.49,-359.7C2289.93,-351.98 2290.46,-342.71 2290.95,-334.11"/>
<polygon fill="grey" stroke="grey" stroke-width="2" points="2294.45,-334.29 2291.52,-324.1 2287.46,-333.89 2294.45,-334.29"/>
</g>
<!-- 15 -->
<g id="node16" class="node">
<title>15</title>
<path fill="none" stroke="#a7d856" stroke-width="2" d="M2121.5,-252C2121.5,-252 1977.5,-252 1977.5,-252 1971.5,-252 1965.5,-246 1965.5,-240 1965.5,-240 1965.5,-228 1965.5,-228 1965.5,-222 1971.5,-216 1977.5,-216 1977.5,-216 2121.5,-216 2121.5,-216 2127.5,-216 2133.5,-222 2133.5,-228 2133.5,-228 2133.5,-240 2133.5,-240 2133.5,-246 2127.5,-252 2121.5,-252"/>
<text text-anchor="middle" x="2049.5" y="-231.5" font-family="sans" font-size="10.00">merge_phage_fasta_by_source</text>
</g>
<!-- 15&#45;&gt;0 -->
<g id="edge6" class="edge">
<title>15&#45;&gt;0</title>
<path fill="none" stroke="grey" stroke-width="2" d="M2022.57,-215.81C2009.49,-206.45 1994.31,-193.93 1983.5,-180 1951.18,-138.36 1974.2,-106.67 1934.5,-72 1895.11,-37.6 1834.09,-25.52 1794.98,-21.28"/>
<polygon fill="grey" stroke="grey" stroke-width="2" points="1795.09,-17.78 1784.8,-20.3 1794.42,-24.74 1795.09,-17.78"/>
</g>
<!-- 22 -->
<g id="node23" class="node">
<title>22</title>
<path fill="none" stroke="#d88d56" stroke-width="2" d="M2094,-180C2094,-180 2005,-180 2005,-180 1999,-180 1993,-174 1993,-168 1993,-168 1993,-156 1993,-156 1993,-150 1999,-144 2005,-144 2005,-144 2094,-144 2094,-144 2100,-144 2106,-150 2106,-156 2106,-156 2106,-168 2106,-168 2106,-174 2100,-180 2094,-180"/>
<text text-anchor="middle" x="2049.5" y="-159.5" font-family="sans" font-size="10.00">merge_phage_fasta</text>
</g>
<!-- 15&#45;&gt;22 -->
<g id="edge42" class="edge">
<title>15&#45;&gt;22</title>
<path fill="none" stroke="grey" stroke-width="2" d="M2049.5,-215.7C2049.5,-207.98 2049.5,-198.71 2049.5,-190.11"/>
<polygon fill="grey" stroke="grey" stroke-width="2" points="2053,-190.1 2049.5,-180.1 2046,-190.1 2053,-190.1"/>
</g>
<!-- 16 -->
<g id="node17" class="node">
<title>16</title>
<path fill="none" stroke="#d8d356" stroke-width="2" d="M2481.5,-324C2481.5,-324 2389.5,-324 2389.5,-324 2383.5,-324 2377.5,-318 2377.5,-312 2377.5,-312 2377.5,-300 2377.5,-300 2377.5,-294 2383.5,-288 2389.5,-288 2389.5,-288 2481.5,-288 2481.5,-288 2487.5,-288 2493.5,-294 2493.5,-300 2493.5,-300 2493.5,-312 2493.5,-312 2493.5,-318 2487.5,-324 2481.5,-324"/>
<text text-anchor="middle" x="2435.5" y="-303.5" font-family="sans" font-size="10.00">extract_phage_fasta</text>
</g>
<!-- 16&#45;&gt;15 -->
<g id="edge28" class="edge">
<title>16&#45;&gt;15</title>
<path fill="none" stroke="grey" stroke-width="2" d="M2377.4,-291.32C2372.03,-290.16 2366.67,-289.03 2361.5,-288 2288.77,-273.48 2205.99,-259.54 2143.99,-249.6"/>
<polygon fill="grey" stroke="grey" stroke-width="2" points="2144.26,-246.1 2133.83,-247.98 2143.15,-253.01 2144.26,-246.1"/>
</g>
<!-- 17 -->
<g id="node18" class="node">
<title>17</title>
<path fill="none" stroke="#b6d856" stroke-width="2" d="M2491,-396C2491,-396 2386,-396 2386,-396 2380,-396 2374,-390 2374,-384 2374,-384 2374,-372 2374,-372 2374,-366 2380,-360 2386,-360 2386,-360 2491,-360 2491,-360 2497,-360 2503,-366 2503,-372 2503,-372 2503,-384 2503,-384 2503,-390 2497,-396 2491,-396"/>
<text text-anchor="middle" x="2438.5" y="-375.5" font-family="sans" font-size="10.00">download_phage_fasta</text>
</g>
<!-- 17&#45;&gt;16 -->
<g id="edge29" class="edge">
<title>17&#45;&gt;16</title>
<path fill="none" stroke="grey" stroke-width="2" d="M2437.76,-359.7C2437.43,-351.98 2437.03,-342.71 2436.66,-334.11"/>
<polygon fill="grey" stroke="grey" stroke-width="2" points="2440.16,-333.95 2436.23,-324.1 2433.16,-334.25 2440.16,-333.95"/>
</g>
<!-- 18 -->
<g id="node19" class="node">
<title>18</title>
<path fill="none" stroke="#56d8b9" stroke-width="2" d="M1680.5,-180C1680.5,-180 1594.5,-180 1594.5,-180 1588.5,-180 1582.5,-174 1582.5,-168 1582.5,-168 1582.5,-156 1582.5,-156 1582.5,-150 1588.5,-144 1594.5,-144 1594.5,-144 1680.5,-144 1680.5,-144 1686.5,-144 1692.5,-150 1692.5,-156 1692.5,-156 1692.5,-168 1692.5,-168 1692.5,-174 1686.5,-180 1680.5,-180"/>
<text text-anchor="middle" x="1637.5" y="-159.5" font-family="sans" font-size="10.00">optimize_database</text>
</g>
<!-- 18&#45;&gt;0 -->
<g id="edge5" class="edge">
<title>18&#45;&gt;0</title>
<path fill="none" stroke="grey" stroke-width="2" d="M1660.71,-143.78C1673.01,-134.04 1687.91,-121.2 1699.5,-108 1716.68,-88.44 1732.54,-63.39 1743.32,-44.85"/>
<polygon fill="grey" stroke="grey" stroke-width="2" points="1746.42,-46.49 1748.33,-36.07 1740.34,-43.02 1746.42,-46.49"/>
</g>
<!-- 20 -->
<g id="node21" class="node">
<title>20</title>
<path fill="none" stroke="#61d856" stroke-width="2" d="M1679,-108C1679,-108 1596,-108 1596,-108 1590,-108 1584,-102 1584,-96 1584,-96 1584,-84 1584,-84 1584,-78 1590,-72 1596,-72 1596,-72 1679,-72 1679,-72 1685,-72 1691,-78 1691,-84 1691,-84 1691,-96 1691,-96 1691,-102 1685,-108 1679,-108"/>
<text text-anchor="middle" x="1637.5" y="-87.5" font-family="sans" font-size="10.00">validate_database</text>
</g>
<!-- 18&#45;&gt;20 -->
<g id="edge40" class="edge">
<title>18&#45;&gt;20</title>
<path fill="none" stroke="grey" stroke-width="2" d="M1637.5,-143.7C1637.5,-135.98 1637.5,-126.71 1637.5,-118.11"/>
<polygon fill="grey" stroke="grey" stroke-width="2" points="1641,-118.1 1637.5,-108.1 1634,-118.1 1641,-118.1"/>
</g>
<!-- 19&#45;&gt;18 -->
<g id="edge30" class="edge">
<title>19&#45;&gt;18</title>
<path fill="none" stroke="grey" stroke-width="2" d="M1296.74,-225.71C1355.82,-215.87 1463.71,-197.54 1555.5,-180 1560.94,-178.96 1566.59,-177.85 1572.24,-176.72"/>
<polygon fill="grey" stroke="grey" stroke-width="2" points="1573.3,-180.08 1582.41,-174.67 1571.92,-173.22 1573.3,-180.08"/>
</g>
<!-- 20&#45;&gt;0 -->
<g id="edge2" class="edge">
<title>20&#45;&gt;0</title>
<path fill="none" stroke="grey" stroke-width="2" d="M1666.86,-71.88C1683.4,-62.23 1704.19,-50.1 1721.69,-39.89"/>
<polygon fill="grey" stroke="grey" stroke-width="2" points="1723.63,-42.81 1730.5,-34.75 1720.1,-36.77 1723.63,-42.81"/>
</g>
<!-- 21 -->
<g id="node22" class="node">
<title>21</title>
<path fill="none" stroke="#56d8a9" stroke-width="2" d="M2105.5,-108C2105.5,-108 1993.5,-108 1993.5,-108 1987.5,-108 1981.5,-102 1981.5,-96 1981.5,-96 1981.5,-84 1981.5,-84 1981.5,-78 1987.5,-72 1993.5,-72 1993.5,-72 2105.5,-72 2105.5,-72 2111.5,-72 2117.5,-78 2117.5,-84 2117.5,-84 2117.5,-96 2117.5,-96 2117.5,-102 2111.5,-108 2105.5,-108"/>
<text text-anchor="middle" x="2049.5" y="-87.5" font-family="sans" font-size="10.00">index_phage_sequences</text>
</g>
<!-- 21&#45;&gt;0 -->
<g id="edge4" class="edge">
<title>21&#45;&gt;0</title>
<path fill="none" stroke="grey" stroke-width="2" d="M1981.41,-72.68C1923.12,-58.7 1841.42,-39.12 1794.52,-27.88"/>
<polygon fill="grey" stroke="grey" stroke-width="2" points="1795.05,-24.4 1784.51,-25.47 1793.41,-31.21 1795.05,-24.4"/>
</g>
<!-- 22&#45;&gt;21 -->
<g id="edge41" class="edge">
<title>22&#45;&gt;21</title>
<path fill="none" stroke="grey" stroke-width="2" d="M2049.5,-143.7C2049.5,-135.98 2049.5,-126.71 2049.5,-118.11"/>
<polygon fill="grey" stroke="grey" stroke-width="2" points="2053,-118.1 2049.5,-108.1 2046,-118.1 2053,-118.1"/>
</g>
<!-- 23 -->
<g id="node24" class="node">
<title>23</title>
<path fill="none" stroke="#d8ac56" stroke-width="2" d="M1913.5,-108C1913.5,-108 1797.5,-108 1797.5,-108 1791.5,-108 1785.5,-102 1785.5,-96 1785.5,-96 1785.5,-84 1785.5,-84 1785.5,-78 1791.5,-72 1797.5,-72 1797.5,-72 1913.5,-72 1913.5,-72 1919.5,-72 1925.5,-78 1925.5,-84 1925.5,-84 1925.5,-96 1925.5,-96 1925.5,-102 1919.5,-108 1913.5,-108"/>
<text text-anchor="middle" x="1855.5" y="-87.5" font-family="sans" font-size="10.00">index_protein_sequences</text>
</g>
<!-- 23&#45;&gt;0 -->
<g id="edge1" class="edge">
<title>23&#45;&gt;0</title>
<path fill="none" stroke="grey" stroke-width="2" d="M1831.53,-71.88C1818.95,-62.89 1803.37,-51.76 1789.75,-42.03"/>
<polygon fill="grey" stroke="grey" stroke-width="2" points="1791.74,-39.15 1781.57,-36.19 1787.67,-44.85 1791.74,-39.15"/>
</g>
<!-- 24&#45;&gt;23 -->
<g id="edge43" class="edge">
<title>24&#45;&gt;23</title>
<path fill="none" stroke="grey" stroke-width="2" d="M1855.5,-143.7C1855.5,-135.98 1855.5,-126.71 1855.5,-118.11"/>
<polygon fill="grey" stroke="grey" stroke-width="2" points="1859,-118.1 1855.5,-108.1 1852,-118.1 1859,-118.1"/>
</g>
</g>
</svg>
